<svg xmlns="http://www.w3.org/2000/svg" width="24.361" height="23.702" viewBox="0 0 24.361 23.702"><defs><style>.a{fill:#006e74;}</style></defs><g transform="translate(-4.973 -5.632)"><path class="a" d="M26.333,5.632H7.947A2.878,2.878,0,0,0,4.973,8.417L5,21.763a2.878,2.878,0,0,0,2.974,2.785H9.921v4.137a.675.675,0,0,0,.406.595.582.582,0,0,0,.3.054.911.911,0,0,0,.46-.135l6.138-4.65H26.36a2.878,2.878,0,0,0,2.974-2.785L29.307,8.417A2.878,2.878,0,0,0,26.333,5.632Zm1.622,16.1a1.514,1.514,0,0,1-1.568,1.46H16.951a.911.911,0,0,0-.46.135l-5.164,3.92V23.845a.689.689,0,0,0-.7-.649H7.974a1.514,1.514,0,0,1-1.568-1.46L6.379,8.471a1.514,1.514,0,0,1,1.568-1.46h18.44a1.514,1.514,0,0,1,1.568,1.46l.027,13.265Z"/><path class="a" d="M24.73,32.177a2.5,2.5,0,0,0,.106-.777,1.808,1.808,0,0,0-.53-1.377,1.6,1.6,0,0,0-1.13-.424,1.672,1.672,0,0,0-1.13.406,1.814,1.814,0,0,0-.547,1.447,1.775,1.775,0,0,0,.547,1.43,1.641,1.641,0,0,0,1.13.406,1.832,1.832,0,0,0,.565-.071,2.712,2.712,0,0,0,.335-.159l.424.388.371-.388-.406-.371A1.18,1.18,0,0,0,24.73,32.177Zm-.653-.282a.98.98,0,0,1-.124.3l-.353-.335-.371.388.353.335a.406.406,0,0,1-.159.053,1.042,1.042,0,0,1-.247.035.876.876,0,0,1-.565-.194,1.272,1.272,0,0,1-.371-1.024,1.388,1.388,0,0,1,.265-.918.942.942,0,0,1,1.394.018,1.476,1.476,0,0,1,.247.9A2.568,2.568,0,0,1,24.077,31.895Z" transform="translate(-12.628 -16.903)"/><path class="a" d="M45.665,32.436a1.305,1.305,0,0,1-.088.53.565.565,0,0,1-.565.3.576.576,0,0,1-.582-.3,1.246,1.246,0,0,1-.088-.53V30.3H43.6v2.136a1.708,1.708,0,0,0,.177.865,1.6,1.6,0,0,0,2.436,0,1.708,1.708,0,0,0,.177-.865V30.3h-.741v2.136Z" transform="translate(-30.827 -17.479)"/><path class="a" d="M45.665,32.436a1.305,1.305,0,0,1-.088.53.565.565,0,0,1-.565.3.576.576,0,0,1-.582-.3,1.246,1.246,0,0,1-.088-.53V30.3H43.6v2.136a1.708,1.708,0,0,0,.177.865,1.6,1.6,0,0,0,2.436,0,1.708,1.708,0,0,0,.177-.865V30.3h-.741v2.136Z" transform="translate(-24.298 -17.479)"/><path class="a" d="M64.224,32.259h1.695v-.6H64.224v-.741h1.836V30.3H63.5v3.477h2.648v-.618H64.224Z" transform="translate(-47.214 -17.479)"/><path class="a" d="M64.224,32.259h1.695v-.6H64.224v-.741h1.836V30.3H63.5v3.477h2.648v-.618H64.224Z" transform="translate(-40.686 -17.479)"/></g></svg>